<mxfile host="app.diagrams.net" agent="Mozilla/5.0 (Windows NT 10.0; Win64; x64) AppleWebKit/537.36 (KHTML, like Gecko) Chrome/131.0.0.0 Safari/537.36" version="25.0.3">
  <diagram id="C5RBs43oDa-KdzZeNtuy" name="Page-1">
    <mxGraphModel dx="2507" dy="710" grid="1" gridSize="10" guides="1" tooltips="1" connect="1" arrows="1" fold="1" page="1" pageScale="1" pageWidth="827" pageHeight="1169" math="0" shadow="0">
      <root>
        <mxCell id="WIyWlLk6GJQsqaUBKTNV-0" />
        <mxCell id="WIyWlLk6GJQsqaUBKTNV-1" parent="WIyWlLk6GJQsqaUBKTNV-0" />
        <mxCell id="zkfFHV4jXpPFQw0GAbJ--0" value="Film" style="swimlane;fontStyle=2;align=center;verticalAlign=top;childLayout=stackLayout;horizontal=1;startSize=26;horizontalStack=0;resizeParent=1;resizeLast=0;collapsible=1;marginBottom=0;rounded=0;shadow=0;strokeWidth=1;" parent="WIyWlLk6GJQsqaUBKTNV-1" vertex="1">
          <mxGeometry x="200" y="160" width="160" height="250" as="geometry">
            <mxRectangle x="230" y="140" width="160" height="26" as="alternateBounds" />
          </mxGeometry>
        </mxCell>
        <mxCell id="zkfFHV4jXpPFQw0GAbJ--1" value=".numFilm" style="text;align=left;verticalAlign=top;spacingLeft=4;spacingRight=4;overflow=hidden;rotatable=0;points=[[0,0.5],[1,0.5]];portConstraint=eastwest;" parent="zkfFHV4jXpPFQw0GAbJ--0" vertex="1">
          <mxGeometry y="26" width="160" height="26" as="geometry" />
        </mxCell>
        <mxCell id="zkfFHV4jXpPFQw0GAbJ--2" value=".titreFilm" style="text;align=left;verticalAlign=top;spacingLeft=4;spacingRight=4;overflow=hidden;rotatable=0;points=[[0,0.5],[1,0.5]];portConstraint=eastwest;rounded=0;shadow=0;html=0;" parent="zkfFHV4jXpPFQw0GAbJ--0" vertex="1">
          <mxGeometry y="52" width="160" height="26" as="geometry" />
        </mxCell>
        <mxCell id="zkfFHV4jXpPFQw0GAbJ--3" value=".genreFilm" style="text;align=left;verticalAlign=top;spacingLeft=4;spacingRight=4;overflow=hidden;rotatable=0;points=[[0,0.5],[1,0.5]];portConstraint=eastwest;rounded=0;shadow=0;html=0;" parent="zkfFHV4jXpPFQw0GAbJ--0" vertex="1">
          <mxGeometry y="78" width="160" height="26" as="geometry" />
        </mxCell>
        <mxCell id="Z9YNg40CPAMuGilFHo_q-38" value=".duréeFilm" style="text;align=left;verticalAlign=top;spacingLeft=4;spacingRight=4;overflow=hidden;rotatable=0;points=[[0,0.5],[1,0.5]];portConstraint=eastwest;rounded=0;shadow=0;html=0;" vertex="1" parent="zkfFHV4jXpPFQw0GAbJ--0">
          <mxGeometry y="104" width="160" height="26" as="geometry" />
        </mxCell>
        <mxCell id="Z9YNg40CPAMuGilFHo_q-37" value=".dateSortieFilm" style="text;align=left;verticalAlign=top;spacingLeft=4;spacingRight=4;overflow=hidden;rotatable=0;points=[[0,0.5],[1,0.5]];portConstraint=eastwest;rounded=0;shadow=0;html=0;" vertex="1" parent="zkfFHV4jXpPFQw0GAbJ--0">
          <mxGeometry y="130" width="160" height="26" as="geometry" />
        </mxCell>
        <mxCell id="Z9YNg40CPAMuGilFHo_q-39" value=".réalisateurFilm" style="text;align=left;verticalAlign=top;spacingLeft=4;spacingRight=4;overflow=hidden;rotatable=0;points=[[0,0.5],[1,0.5]];portConstraint=eastwest;rounded=0;shadow=0;html=0;" vertex="1" parent="zkfFHV4jXpPFQw0GAbJ--0">
          <mxGeometry y="156" width="160" height="24" as="geometry" />
        </mxCell>
        <mxCell id="Z9YNg40CPAMuGilFHo_q-42" value=".distributionFilm" style="text;align=left;verticalAlign=top;spacingLeft=4;spacingRight=4;overflow=hidden;rotatable=0;points=[[0,0.5],[1,0.5]];portConstraint=eastwest;rounded=0;shadow=0;html=0;" vertex="1" parent="zkfFHV4jXpPFQw0GAbJ--0">
          <mxGeometry y="180" width="160" height="30" as="geometry" />
        </mxCell>
        <mxCell id="zkfFHV4jXpPFQw0GAbJ--4" value="" style="line;html=1;strokeWidth=1;align=left;verticalAlign=middle;spacingTop=-1;spacingLeft=3;spacingRight=3;rotatable=0;labelPosition=right;points=[];portConstraint=eastwest;" parent="zkfFHV4jXpPFQw0GAbJ--0" vertex="1">
          <mxGeometry y="210" width="160" height="8" as="geometry" />
        </mxCell>
        <mxCell id="zkfFHV4jXpPFQw0GAbJ--6" value=" Tickete" style="swimlane;fontStyle=0;align=center;verticalAlign=top;childLayout=stackLayout;horizontal=1;startSize=26;horizontalStack=0;resizeParent=1;resizeLast=0;collapsible=1;marginBottom=0;rounded=0;shadow=0;strokeWidth=1;" parent="WIyWlLk6GJQsqaUBKTNV-1" vertex="1">
          <mxGeometry x="190" y="450" width="160" height="190" as="geometry">
            <mxRectangle x="130" y="380" width="160" height="26" as="alternateBounds" />
          </mxGeometry>
        </mxCell>
        <mxCell id="zkfFHV4jXpPFQw0GAbJ--7" value=".numTickete" style="text;align=left;verticalAlign=top;spacingLeft=4;spacingRight=4;overflow=hidden;rotatable=0;points=[[0,0.5],[1,0.5]];portConstraint=eastwest;" parent="zkfFHV4jXpPFQw0GAbJ--6" vertex="1">
          <mxGeometry y="26" width="160" height="26" as="geometry" />
        </mxCell>
        <mxCell id="Z9YNg40CPAMuGilFHo_q-50" value=".détails du client" style="text;align=left;verticalAlign=top;spacingLeft=4;spacingRight=4;overflow=hidden;rotatable=0;points=[[0,0.5],[1,0.5]];portConstraint=eastwest;" vertex="1" parent="zkfFHV4jXpPFQw0GAbJ--6">
          <mxGeometry y="52" width="160" height="26" as="geometry" />
        </mxCell>
        <mxCell id="Z9YNg40CPAMuGilFHo_q-51" value=".détailsFilm" style="text;align=left;verticalAlign=top;spacingLeft=4;spacingRight=4;overflow=hidden;rotatable=0;points=[[0,0.5],[1,0.5]];portConstraint=eastwest;rounded=0;shadow=0;html=0;" vertex="1" parent="zkfFHV4jXpPFQw0GAbJ--6">
          <mxGeometry y="78" width="160" height="26" as="geometry" />
        </mxCell>
        <mxCell id="Z9YNg40CPAMuGilFHo_q-52" value=".détailsSalle" style="text;align=left;verticalAlign=top;spacingLeft=4;spacingRight=4;overflow=hidden;rotatable=0;points=[[0,0.5],[1,0.5]];portConstraint=eastwest;rounded=0;shadow=0;html=0;" vertex="1" parent="zkfFHV4jXpPFQw0GAbJ--6">
          <mxGeometry y="104" width="160" height="26" as="geometry" />
        </mxCell>
        <mxCell id="Z9YNg40CPAMuGilFHo_q-56" value=".numéroSiege" style="text;align=left;verticalAlign=top;spacingLeft=4;spacingRight=4;overflow=hidden;rotatable=0;points=[[0,0.5],[1,0.5]];portConstraint=eastwest;rounded=0;shadow=0;html=0;" vertex="1" parent="zkfFHV4jXpPFQw0GAbJ--6">
          <mxGeometry y="130" width="160" height="30" as="geometry" />
        </mxCell>
        <mxCell id="Z9YNg40CPAMuGilFHo_q-57" value="" style="line;html=1;strokeWidth=1;align=left;verticalAlign=middle;spacingTop=-1;spacingLeft=3;spacingRight=3;rotatable=0;labelPosition=right;points=[];portConstraint=eastwest;" vertex="1" parent="zkfFHV4jXpPFQw0GAbJ--6">
          <mxGeometry y="160" width="160" height="8" as="geometry" />
        </mxCell>
        <mxCell id="zkfFHV4jXpPFQw0GAbJ--13" value="Projections" style="swimlane;fontStyle=0;align=center;verticalAlign=top;childLayout=stackLayout;horizontal=1;startSize=26;horizontalStack=0;resizeParent=1;resizeLast=0;collapsible=1;marginBottom=0;rounded=0;shadow=0;strokeWidth=1;" parent="WIyWlLk6GJQsqaUBKTNV-1" vertex="1">
          <mxGeometry x="600" y="160" width="160" height="162" as="geometry">
            <mxRectangle x="340" y="380" width="170" height="26" as="alternateBounds" />
          </mxGeometry>
        </mxCell>
        <mxCell id="zkfFHV4jXpPFQw0GAbJ--14" value=".numProj&#xa;" style="text;align=left;verticalAlign=top;spacingLeft=4;spacingRight=4;overflow=hidden;rotatable=0;points=[[0,0.5],[1,0.5]];portConstraint=eastwest;" parent="zkfFHV4jXpPFQw0GAbJ--13" vertex="1">
          <mxGeometry y="26" width="160" height="26" as="geometry" />
        </mxCell>
        <mxCell id="Z9YNg40CPAMuGilFHo_q-47" value=".dateProj&#xa;" style="text;align=left;verticalAlign=top;spacingLeft=4;spacingRight=4;overflow=hidden;rotatable=0;points=[[0,0.5],[1,0.5]];portConstraint=eastwest;" vertex="1" parent="zkfFHV4jXpPFQw0GAbJ--13">
          <mxGeometry y="52" width="160" height="26" as="geometry" />
        </mxCell>
        <mxCell id="Z9YNg40CPAMuGilFHo_q-48" value=".heureProj&#xa;" style="text;align=left;verticalAlign=top;spacingLeft=4;spacingRight=4;overflow=hidden;rotatable=0;points=[[0,0.5],[1,0.5]];portConstraint=eastwest;" vertex="1" parent="zkfFHV4jXpPFQw0GAbJ--13">
          <mxGeometry y="78" width="160" height="26" as="geometry" />
        </mxCell>
        <mxCell id="Z9YNg40CPAMuGilFHo_q-49" value=".salleProj&#xa;" style="text;align=left;verticalAlign=top;spacingLeft=4;spacingRight=4;overflow=hidden;rotatable=0;points=[[0,0.5],[1,0.5]];portConstraint=eastwest;" vertex="1" parent="zkfFHV4jXpPFQw0GAbJ--13">
          <mxGeometry y="104" width="160" height="26" as="geometry" />
        </mxCell>
        <mxCell id="zkfFHV4jXpPFQw0GAbJ--15" value="" style="line;html=1;strokeWidth=1;align=left;verticalAlign=middle;spacingTop=-1;spacingLeft=3;spacingRight=3;rotatable=0;labelPosition=right;points=[];portConstraint=eastwest;" parent="zkfFHV4jXpPFQw0GAbJ--13" vertex="1">
          <mxGeometry y="130" width="160" height="20" as="geometry" />
        </mxCell>
        <mxCell id="zkfFHV4jXpPFQw0GAbJ--17" value="Salle" style="swimlane;fontStyle=0;align=center;verticalAlign=top;childLayout=stackLayout;horizontal=1;startSize=26;horizontalStack=0;resizeParent=1;resizeLast=0;collapsible=1;marginBottom=0;rounded=0;shadow=0;strokeWidth=1;" parent="WIyWlLk6GJQsqaUBKTNV-1" vertex="1">
          <mxGeometry x="400" y="160" width="160" height="140" as="geometry">
            <mxRectangle x="550" y="140" width="160" height="26" as="alternateBounds" />
          </mxGeometry>
        </mxCell>
        <mxCell id="zkfFHV4jXpPFQw0GAbJ--21" value=".num" style="text;align=left;verticalAlign=top;spacingLeft=4;spacingRight=4;overflow=hidden;rotatable=0;points=[[0,0.5],[1,0.5]];portConstraint=eastwest;rounded=0;shadow=0;html=0;" parent="zkfFHV4jXpPFQw0GAbJ--17" vertex="1">
          <mxGeometry y="26" width="160" height="26" as="geometry" />
        </mxCell>
        <mxCell id="zkfFHV4jXpPFQw0GAbJ--19" value=".nom" style="text;align=left;verticalAlign=top;spacingLeft=4;spacingRight=4;overflow=hidden;rotatable=0;points=[[0,0.5],[1,0.5]];portConstraint=eastwest;rounded=0;shadow=0;html=0;" parent="zkfFHV4jXpPFQw0GAbJ--17" vertex="1">
          <mxGeometry y="52" width="160" height="26" as="geometry" />
        </mxCell>
        <mxCell id="zkfFHV4jXpPFQw0GAbJ--20" value=".capacite" style="text;align=left;verticalAlign=top;spacingLeft=4;spacingRight=4;overflow=hidden;rotatable=0;points=[[0,0.5],[1,0.5]];portConstraint=eastwest;rounded=0;shadow=0;html=0;" parent="zkfFHV4jXpPFQw0GAbJ--17" vertex="1">
          <mxGeometry y="78" width="160" height="26" as="geometry" />
        </mxCell>
        <mxCell id="zkfFHV4jXpPFQw0GAbJ--23" value="" style="line;html=1;strokeWidth=1;align=left;verticalAlign=middle;spacingTop=-1;spacingLeft=3;spacingRight=3;rotatable=0;labelPosition=right;points=[];portConstraint=eastwest;" parent="zkfFHV4jXpPFQw0GAbJ--17" vertex="1">
          <mxGeometry y="104" width="160" height="8" as="geometry" />
        </mxCell>
        <mxCell id="Z9YNg40CPAMuGilFHo_q-87" style="edgeStyle=orthogonalEdgeStyle;rounded=0;orthogonalLoop=1;jettySize=auto;html=1;exitX=0.25;exitY=0;exitDx=0;exitDy=0;entryX=0.045;entryY=-0.309;entryDx=0;entryDy=0;entryPerimeter=0;" edge="1" parent="zkfFHV4jXpPFQw0GAbJ--17" source="zkfFHV4jXpPFQw0GAbJ--17" target="zkfFHV4jXpPFQw0GAbJ--21">
          <mxGeometry relative="1" as="geometry" />
        </mxCell>
        <mxCell id="Z9YNg40CPAMuGilFHo_q-3" value="Client" style="shape=umlActor;verticalLabelPosition=bottom;verticalAlign=top;html=1;outlineConnect=0;" vertex="1" parent="WIyWlLk6GJQsqaUBKTNV-1">
          <mxGeometry x="-800" y="240" width="30" height="60" as="geometry" />
        </mxCell>
        <mxCell id="Z9YNg40CPAMuGilFHo_q-4" value="Admin" style="shape=umlActor;verticalLabelPosition=bottom;verticalAlign=top;html=1;outlineConnect=0;" vertex="1" parent="WIyWlLk6GJQsqaUBKTNV-1">
          <mxGeometry x="-800" y="350" width="30" height="60" as="geometry" />
        </mxCell>
        <mxCell id="Z9YNg40CPAMuGilFHo_q-5" value="Tickets" style="shape=umlActor;verticalLabelPosition=bottom;verticalAlign=top;html=1;outlineConnect=0;" vertex="1" parent="WIyWlLk6GJQsqaUBKTNV-1">
          <mxGeometry x="-800" y="560" width="30" height="60" as="geometry" />
        </mxCell>
        <mxCell id="Z9YNg40CPAMuGilFHo_q-7" value="project" style="shape=umlActor;verticalLabelPosition=bottom;verticalAlign=top;html=1;outlineConnect=0;" vertex="1" parent="WIyWlLk6GJQsqaUBKTNV-1">
          <mxGeometry x="-800" y="450" width="30" height="60" as="geometry" />
        </mxCell>
        <mxCell id="Z9YNg40CPAMuGilFHo_q-16" value="" style="endArrow=none;html=1;rounded=0;entryX=0;entryY=0.5;entryDx=0;entryDy=0;" edge="1" parent="WIyWlLk6GJQsqaUBKTNV-1" source="Z9YNg40CPAMuGilFHo_q-3" target="Z9YNg40CPAMuGilFHo_q-8">
          <mxGeometry width="50" height="50" relative="1" as="geometry">
            <mxPoint x="-820" y="300" as="sourcePoint" />
            <mxPoint x="-540" y="440" as="targetPoint" />
            <Array as="points" />
          </mxGeometry>
        </mxCell>
        <mxCell id="Z9YNg40CPAMuGilFHo_q-17" value="" style="endArrow=none;html=1;rounded=0;exitX=0;exitY=0.5;exitDx=0;exitDy=0;" edge="1" parent="WIyWlLk6GJQsqaUBKTNV-1" source="Z9YNg40CPAMuGilFHo_q-10" target="Z9YNg40CPAMuGilFHo_q-3">
          <mxGeometry width="50" height="50" relative="1" as="geometry">
            <mxPoint x="-600" y="610" as="sourcePoint" />
            <mxPoint x="-760" y="275" as="targetPoint" />
            <Array as="points" />
          </mxGeometry>
        </mxCell>
        <mxCell id="Z9YNg40CPAMuGilFHo_q-18" value="" style="endArrow=none;html=1;rounded=0;entryX=0;entryY=0.5;entryDx=0;entryDy=0;" edge="1" parent="WIyWlLk6GJQsqaUBKTNV-1" source="Z9YNg40CPAMuGilFHo_q-3" target="Z9YNg40CPAMuGilFHo_q-13">
          <mxGeometry width="50" height="50" relative="1" as="geometry">
            <mxPoint x="-818" y="307" as="sourcePoint" />
            <mxPoint x="-630" y="410" as="targetPoint" />
          </mxGeometry>
        </mxCell>
        <mxCell id="Z9YNg40CPAMuGilFHo_q-19" value="" style="endArrow=none;html=1;rounded=0;entryX=0;entryY=0.5;entryDx=0;entryDy=0;" edge="1" parent="WIyWlLk6GJQsqaUBKTNV-1" source="Z9YNg40CPAMuGilFHo_q-3" target="Z9YNg40CPAMuGilFHo_q-14">
          <mxGeometry width="50" height="50" relative="1" as="geometry">
            <mxPoint x="-820" y="310" as="sourcePoint" />
            <mxPoint x="-540" y="560" as="targetPoint" />
            <Array as="points" />
          </mxGeometry>
        </mxCell>
        <mxCell id="Z9YNg40CPAMuGilFHo_q-22" value="" style="endArrow=none;html=1;rounded=0;exitX=0;exitY=0.5;exitDx=0;exitDy=0;" edge="1" parent="WIyWlLk6GJQsqaUBKTNV-1" source="Z9YNg40CPAMuGilFHo_q-12" target="Z9YNg40CPAMuGilFHo_q-4">
          <mxGeometry width="50" height="50" relative="1" as="geometry">
            <mxPoint x="-620" y="460" as="sourcePoint" />
            <mxPoint x="-790" y="390" as="targetPoint" />
            <Array as="points" />
          </mxGeometry>
        </mxCell>
        <mxCell id="Z9YNg40CPAMuGilFHo_q-24" value="" style="endArrow=none;html=1;rounded=0;entryX=0;entryY=0.5;entryDx=0;entryDy=0;" edge="1" parent="WIyWlLk6GJQsqaUBKTNV-1" source="Z9YNg40CPAMuGilFHo_q-7" target="Z9YNg40CPAMuGilFHo_q-11">
          <mxGeometry width="50" height="50" relative="1" as="geometry">
            <mxPoint x="-800" y="500" as="sourcePoint" />
            <mxPoint x="-560" y="410" as="targetPoint" />
            <Array as="points" />
          </mxGeometry>
        </mxCell>
        <mxCell id="Z9YNg40CPAMuGilFHo_q-26" value="" style="endArrow=none;html=1;rounded=0;entryX=0;entryY=0.5;entryDx=0;entryDy=0;" edge="1" parent="WIyWlLk6GJQsqaUBKTNV-1" target="Z9YNg40CPAMuGilFHo_q-25" source="Z9YNg40CPAMuGilFHo_q-5">
          <mxGeometry width="50" height="50" relative="1" as="geometry">
            <mxPoint x="-810" y="650" as="sourcePoint" />
            <mxPoint x="-550" y="420" as="targetPoint" />
            <Array as="points" />
          </mxGeometry>
        </mxCell>
        <mxCell id="Z9YNg40CPAMuGilFHo_q-31" value="&lt;span style=&quot;text-wrap-mode: nowrap;&quot;&gt;&lt;font style=&quot;font-size: 24px;&quot;&gt;Use Case Diagrame&lt;/font&gt;&lt;/span&gt;" style="text;strokeColor=none;align=center;fillColor=none;html=1;verticalAlign=middle;whiteSpace=wrap;rounded=0;" vertex="1" parent="WIyWlLk6GJQsqaUBKTNV-1">
          <mxGeometry x="-502" y="40" width="240" height="50" as="geometry" />
        </mxCell>
        <mxCell id="Z9YNg40CPAMuGilFHo_q-34" value="&lt;font style=&quot;font-size: 24px;&quot;&gt;Classe diagrame&lt;/font&gt;" style="text;strokeColor=none;align=center;fillColor=none;html=1;verticalAlign=middle;whiteSpace=wrap;rounded=0;" vertex="1" parent="WIyWlLk6GJQsqaUBKTNV-1">
          <mxGeometry x="260" y="60" width="240" height="30" as="geometry" />
        </mxCell>
        <mxCell id="Z9YNg40CPAMuGilFHo_q-46" value="." style="text;align=left;verticalAlign=top;spacingLeft=4;spacingRight=4;overflow=hidden;rotatable=0;points=[[0,0.5],[1,0.5]];portConstraint=eastwest;" vertex="1" parent="WIyWlLk6GJQsqaUBKTNV-1">
          <mxGeometry x="300" y="467" width="160" height="26" as="geometry" />
        </mxCell>
        <mxCell id="Z9YNg40CPAMuGilFHo_q-59" value="Admin" style="swimlane;fontStyle=2;align=center;verticalAlign=top;childLayout=stackLayout;horizontal=1;startSize=26;horizontalStack=0;resizeParent=1;resizeLast=0;collapsible=1;marginBottom=0;rounded=0;shadow=0;strokeWidth=1;" vertex="1" parent="WIyWlLk6GJQsqaUBKTNV-1">
          <mxGeometry x="440" y="440" width="160" height="170" as="geometry">
            <mxRectangle x="230" y="140" width="160" height="26" as="alternateBounds" />
          </mxGeometry>
        </mxCell>
        <mxCell id="Z9YNg40CPAMuGilFHo_q-60" value=".num" style="text;align=left;verticalAlign=top;spacingLeft=4;spacingRight=4;overflow=hidden;rotatable=0;points=[[0,0.5],[1,0.5]];portConstraint=eastwest;" vertex="1" parent="Z9YNg40CPAMuGilFHo_q-59">
          <mxGeometry y="26" width="160" height="26" as="geometry" />
        </mxCell>
        <mxCell id="Z9YNg40CPAMuGilFHo_q-61" value=".nom" style="text;align=left;verticalAlign=top;spacingLeft=4;spacingRight=4;overflow=hidden;rotatable=0;points=[[0,0.5],[1,0.5]];portConstraint=eastwest;rounded=0;shadow=0;html=0;" vertex="1" parent="Z9YNg40CPAMuGilFHo_q-59">
          <mxGeometry y="52" width="160" height="26" as="geometry" />
        </mxCell>
        <mxCell id="Z9YNg40CPAMuGilFHo_q-62" value=".email" style="text;align=left;verticalAlign=top;spacingLeft=4;spacingRight=4;overflow=hidden;rotatable=0;points=[[0,0.5],[1,0.5]];portConstraint=eastwest;rounded=0;shadow=0;html=0;" vertex="1" parent="Z9YNg40CPAMuGilFHo_q-59">
          <mxGeometry y="78" width="160" height="26" as="geometry" />
        </mxCell>
        <mxCell id="Z9YNg40CPAMuGilFHo_q-63" value=".password" style="text;align=left;verticalAlign=top;spacingLeft=4;spacingRight=4;overflow=hidden;rotatable=0;points=[[0,0.5],[1,0.5]];portConstraint=eastwest;rounded=0;shadow=0;html=0;" vertex="1" parent="Z9YNg40CPAMuGilFHo_q-59">
          <mxGeometry y="104" width="160" height="26" as="geometry" />
        </mxCell>
        <mxCell id="Z9YNg40CPAMuGilFHo_q-68" value="" style="line;html=1;strokeWidth=1;align=left;verticalAlign=middle;spacingTop=-1;spacingLeft=3;spacingRight=3;rotatable=0;labelPosition=right;points=[];portConstraint=eastwest;" vertex="1" parent="Z9YNg40CPAMuGilFHo_q-59">
          <mxGeometry y="130" width="160" height="8" as="geometry" />
        </mxCell>
        <mxCell id="Z9YNg40CPAMuGilFHo_q-69" value="+" style="text;align=left;verticalAlign=top;spacingLeft=4;spacingRight=4;overflow=hidden;rotatable=0;points=[[0,0.5],[1,0.5]];portConstraint=eastwest;rounded=0;shadow=0;html=0;" vertex="1" parent="Z9YNg40CPAMuGilFHo_q-59">
          <mxGeometry y="138" width="160" height="26" as="geometry" />
        </mxCell>
        <mxCell id="Z9YNg40CPAMuGilFHo_q-79" value="Client" style="swimlane;fontStyle=2;align=center;verticalAlign=top;childLayout=stackLayout;horizontal=1;startSize=26;horizontalStack=0;resizeParent=1;resizeLast=0;collapsible=1;marginBottom=0;rounded=0;shadow=0;strokeWidth=1;" vertex="1" parent="WIyWlLk6GJQsqaUBKTNV-1">
          <mxGeometry x="10" y="160" width="160" height="170" as="geometry">
            <mxRectangle x="230" y="140" width="160" height="26" as="alternateBounds" />
          </mxGeometry>
        </mxCell>
        <mxCell id="Z9YNg40CPAMuGilFHo_q-80" value=".num" style="text;align=left;verticalAlign=top;spacingLeft=4;spacingRight=4;overflow=hidden;rotatable=0;points=[[0,0.5],[1,0.5]];portConstraint=eastwest;" vertex="1" parent="Z9YNg40CPAMuGilFHo_q-79">
          <mxGeometry y="26" width="160" height="26" as="geometry" />
        </mxCell>
        <mxCell id="Z9YNg40CPAMuGilFHo_q-81" value=".nom" style="text;align=left;verticalAlign=top;spacingLeft=4;spacingRight=4;overflow=hidden;rotatable=0;points=[[0,0.5],[1,0.5]];portConstraint=eastwest;rounded=0;shadow=0;html=0;" vertex="1" parent="Z9YNg40CPAMuGilFHo_q-79">
          <mxGeometry y="52" width="160" height="26" as="geometry" />
        </mxCell>
        <mxCell id="Z9YNg40CPAMuGilFHo_q-82" value=".email" style="text;align=left;verticalAlign=top;spacingLeft=4;spacingRight=4;overflow=hidden;rotatable=0;points=[[0,0.5],[1,0.5]];portConstraint=eastwest;rounded=0;shadow=0;html=0;" vertex="1" parent="Z9YNg40CPAMuGilFHo_q-79">
          <mxGeometry y="78" width="160" height="26" as="geometry" />
        </mxCell>
        <mxCell id="Z9YNg40CPAMuGilFHo_q-83" value=".password" style="text;align=left;verticalAlign=top;spacingLeft=4;spacingRight=4;overflow=hidden;rotatable=0;points=[[0,0.5],[1,0.5]];portConstraint=eastwest;rounded=0;shadow=0;html=0;" vertex="1" parent="Z9YNg40CPAMuGilFHo_q-79">
          <mxGeometry y="104" width="160" height="26" as="geometry" />
        </mxCell>
        <mxCell id="Z9YNg40CPAMuGilFHo_q-84" value="" style="line;html=1;strokeWidth=1;align=left;verticalAlign=middle;spacingTop=-1;spacingLeft=3;spacingRight=3;rotatable=0;labelPosition=right;points=[];portConstraint=eastwest;" vertex="1" parent="Z9YNg40CPAMuGilFHo_q-79">
          <mxGeometry y="130" width="160" height="8" as="geometry" />
        </mxCell>
        <mxCell id="Z9YNg40CPAMuGilFHo_q-85" value="+" style="text;align=left;verticalAlign=top;spacingLeft=4;spacingRight=4;overflow=hidden;rotatable=0;points=[[0,0.5],[1,0.5]];portConstraint=eastwest;rounded=0;shadow=0;html=0;" vertex="1" parent="Z9YNg40CPAMuGilFHo_q-79">
          <mxGeometry y="138" width="160" height="26" as="geometry" />
        </mxCell>
        <mxCell id="Z9YNg40CPAMuGilFHo_q-93" value="include" style="text;html=1;align=center;verticalAlign=middle;resizable=0;points=[];autosize=1;strokeColor=none;fillColor=none;" vertex="1" parent="WIyWlLk6GJQsqaUBKTNV-1">
          <mxGeometry x="-300" y="188" width="60" height="30" as="geometry" />
        </mxCell>
        <mxCell id="Z9YNg40CPAMuGilFHo_q-99" value="" style="endArrow=none;dashed=1;html=1;dashPattern=1 3;strokeWidth=2;rounded=0;entryX=0;entryY=0.5;entryDx=0;entryDy=0;" edge="1" parent="WIyWlLk6GJQsqaUBKTNV-1" target="Z9YNg40CPAMuGilFHo_q-97">
          <mxGeometry width="50" height="50" relative="1" as="geometry">
            <mxPoint x="-300" y="470" as="sourcePoint" />
            <mxPoint x="-260" y="460" as="targetPoint" />
          </mxGeometry>
        </mxCell>
        <mxCell id="Z9YNg40CPAMuGilFHo_q-0" value="" style="swimlane;startSize=0;" vertex="1" parent="WIyWlLk6GJQsqaUBKTNV-1">
          <mxGeometry x="-690" y="160" width="630" height="510" as="geometry">
            <mxRectangle x="190" y="100" width="50" height="40" as="alternateBounds" />
          </mxGeometry>
        </mxCell>
        <mxCell id="Z9YNg40CPAMuGilFHo_q-2" value="&lt;font style=&quot;font-size: 14px;&quot;&gt;Systeme de Cinema&lt;br&gt;&lt;/font&gt;&amp;nbsp;" style="text;html=1;align=center;verticalAlign=middle;resizable=0;points=[];autosize=1;strokeColor=none;fillColor=none;" vertex="1" parent="Z9YNg40CPAMuGilFHo_q-0">
          <mxGeometry x="250" width="150" height="40" as="geometry" />
        </mxCell>
        <mxCell id="Z9YNg40CPAMuGilFHo_q-8" value="&lt;font style=&quot;font-size: 14px;&quot;&gt;Inscription&lt;/font&gt;" style="ellipse;whiteSpace=wrap;html=1;" vertex="1" parent="Z9YNg40CPAMuGilFHo_q-0">
          <mxGeometry x="255" y="30" width="120" height="50" as="geometry" />
        </mxCell>
        <mxCell id="Z9YNg40CPAMuGilFHo_q-10" value="&lt;span style=&quot;font-family: &amp;quot;Nunito Sans&amp;quot;, sans-serif; font-size: 14px; text-align: start; white-space-collapse: preserve; background-color: rgb(255, 255, 255);&quot;&gt; consulter les films&lt;/span&gt;" style="ellipse;whiteSpace=wrap;html=1;" vertex="1" parent="Z9YNg40CPAMuGilFHo_q-0">
          <mxGeometry x="255" y="90" width="120" height="50" as="geometry" />
        </mxCell>
        <mxCell id="Z9YNg40CPAMuGilFHo_q-11" value="Gestion des Prjoections" style="ellipse;whiteSpace=wrap;html=1;" vertex="1" parent="Z9YNg40CPAMuGilFHo_q-0">
          <mxGeometry x="255" y="350" width="120" height="50" as="geometry" />
        </mxCell>
        <mxCell id="Z9YNg40CPAMuGilFHo_q-12" value="&lt;font style=&quot;font-size: 14px;&quot;&gt;Gestion des films&lt;/font&gt;" style="ellipse;whiteSpace=wrap;html=1;" vertex="1" parent="Z9YNg40CPAMuGilFHo_q-0">
          <mxGeometry x="259" y="290" width="120" height="50" as="geometry" />
        </mxCell>
        <mxCell id="Z9YNg40CPAMuGilFHo_q-13" value="&lt;span style=&quot;font-family: &amp;quot;Nunito Sans&amp;quot;, sans-serif; font-size: 14px; text-align: start; white-space-collapse: preserve; background-color: rgb(255, 255, 255);&quot;&gt;réserver un ticket&lt;/span&gt;" style="ellipse;whiteSpace=wrap;html=1;" vertex="1" parent="Z9YNg40CPAMuGilFHo_q-0">
          <mxGeometry x="255" y="150" width="120" height="50" as="geometry" />
        </mxCell>
        <mxCell id="Z9YNg40CPAMuGilFHo_q-14" value="&lt;span style=&quot;font-family: &amp;quot;Nunito Sans&amp;quot;, sans-serif; font-size: 14px; text-align: start; white-space-collapse: preserve; background-color: rgb(255, 255, 255);&quot;&gt;consulter l&#39;historique&lt;/span&gt;" style="ellipse;whiteSpace=wrap;html=1;" vertex="1" parent="Z9YNg40CPAMuGilFHo_q-0">
          <mxGeometry x="255" y="220" width="120" height="50" as="geometry" />
        </mxCell>
        <mxCell id="Z9YNg40CPAMuGilFHo_q-25" value="Gestion des Tickets" style="ellipse;whiteSpace=wrap;html=1;" vertex="1" parent="Z9YNg40CPAMuGilFHo_q-0">
          <mxGeometry x="255" y="420" width="120" height="50" as="geometry" />
        </mxCell>
        <mxCell id="Z9YNg40CPAMuGilFHo_q-89" value="&lt;span style=&quot;font-size: 14px;&quot;&gt;Autontficatin&lt;/span&gt;" style="ellipse;whiteSpace=wrap;html=1;" vertex="1" parent="Z9YNg40CPAMuGilFHo_q-0">
          <mxGeometry x="455" y="30" width="120" height="50" as="geometry" />
        </mxCell>
        <mxCell id="Z9YNg40CPAMuGilFHo_q-92" value="" style="endArrow=none;dashed=1;html=1;rounded=0;entryX=0;entryY=0.5;entryDx=0;entryDy=0;exitX=1;exitY=0.5;exitDx=0;exitDy=0;" edge="1" parent="Z9YNg40CPAMuGilFHo_q-0" source="Z9YNg40CPAMuGilFHo_q-8" target="Z9YNg40CPAMuGilFHo_q-89">
          <mxGeometry width="50" height="50" relative="1" as="geometry">
            <mxPoint x="660" y="170" as="sourcePoint" />
            <mxPoint x="710" y="120" as="targetPoint" />
            <Array as="points" />
          </mxGeometry>
        </mxCell>
        <mxCell id="Z9YNg40CPAMuGilFHo_q-95" value="" style="endArrow=none;dashed=1;html=1;dashPattern=1 3;strokeWidth=2;rounded=0;entryX=0.375;entryY=1.078;entryDx=0;entryDy=0;entryPerimeter=0;exitX=1;exitY=0.5;exitDx=0;exitDy=0;" edge="1" parent="Z9YNg40CPAMuGilFHo_q-0" source="Z9YNg40CPAMuGilFHo_q-12" target="Z9YNg40CPAMuGilFHo_q-89">
          <mxGeometry width="50" height="50" relative="1" as="geometry">
            <mxPoint x="380" y="340" as="sourcePoint" />
            <mxPoint x="470" y="72" as="targetPoint" />
            <Array as="points" />
          </mxGeometry>
        </mxCell>
        <mxCell id="Z9YNg40CPAMuGilFHo_q-96" value="&lt;span style=&quot;font-size: 12px;&quot;&gt;include&lt;/span&gt;" style="edgeLabel;html=1;align=center;verticalAlign=middle;resizable=0;points=[];rotation=-60;" vertex="1" connectable="0" parent="Z9YNg40CPAMuGilFHo_q-95">
          <mxGeometry x="0.1766" y="10" relative="1" as="geometry">
            <mxPoint as="offset" />
          </mxGeometry>
        </mxCell>
        <mxCell id="Z9YNg40CPAMuGilFHo_q-97" value="&lt;font style=&quot;font-size: 14px;&quot;&gt;ajoute d&#39;un film&lt;/font&gt;" style="ellipse;whiteSpace=wrap;html=1;" vertex="1" parent="Z9YNg40CPAMuGilFHo_q-0">
          <mxGeometry x="480" y="230" width="120" height="50" as="geometry" />
        </mxCell>
        <mxCell id="Z9YNg40CPAMuGilFHo_q-101" value="&lt;font style=&quot;font-size: 14px;&quot;&gt;Modife du film&lt;/font&gt;" style="ellipse;whiteSpace=wrap;html=1;" vertex="1" parent="Z9YNg40CPAMuGilFHo_q-0">
          <mxGeometry x="480" y="290" width="120" height="50" as="geometry" />
        </mxCell>
        <mxCell id="Z9YNg40CPAMuGilFHo_q-103" value="&lt;font style=&quot;font-size: 14px;&quot;&gt;suprition d&#39;un film&lt;/font&gt;" style="ellipse;whiteSpace=wrap;html=1;" vertex="1" parent="Z9YNg40CPAMuGilFHo_q-0">
          <mxGeometry x="480" y="350" width="120" height="50" as="geometry" />
        </mxCell>
        <mxCell id="Z9YNg40CPAMuGilFHo_q-104" value="" style="endArrow=none;dashed=1;html=1;dashPattern=1 3;strokeWidth=2;rounded=0;entryX=0;entryY=0.5;entryDx=0;entryDy=0;exitX=1;exitY=0.5;exitDx=0;exitDy=0;" edge="1" parent="Z9YNg40CPAMuGilFHo_q-0" source="Z9YNg40CPAMuGilFHo_q-12" target="Z9YNg40CPAMuGilFHo_q-103">
          <mxGeometry width="50" height="50" relative="1" as="geometry">
            <mxPoint x="380" y="350" as="sourcePoint" />
            <mxPoint x="430" y="300" as="targetPoint" />
          </mxGeometry>
        </mxCell>
        <mxCell id="Z9YNg40CPAMuGilFHo_q-109" value="&lt;span style=&quot;font-size: 12px;&quot;&gt;include&lt;/span&gt;" style="edgeLabel;html=1;align=center;verticalAlign=middle;resizable=0;points=[];rotation=30;" vertex="1" connectable="0" parent="Z9YNg40CPAMuGilFHo_q-104">
          <mxGeometry x="0.2037" y="12" relative="1" as="geometry">
            <mxPoint x="-5" y="25" as="offset" />
          </mxGeometry>
        </mxCell>
        <mxCell id="Z9YNg40CPAMuGilFHo_q-106" value="&lt;span style=&quot;background-color: rgb(255, 255, 255);&quot;&gt;include&lt;/span&gt;" style="text;html=1;align=center;verticalAlign=middle;resizable=0;points=[];autosize=1;strokeColor=none;fillColor=none;rotation=-30;" vertex="1" parent="Z9YNg40CPAMuGilFHo_q-0">
          <mxGeometry x="410" y="250" width="60" height="30" as="geometry" />
        </mxCell>
        <mxCell id="Z9YNg40CPAMuGilFHo_q-102" value="" style="endArrow=none;dashed=1;html=1;dashPattern=1 3;strokeWidth=2;rounded=0;entryX=0;entryY=0.5;entryDx=0;entryDy=0;" edge="1" parent="WIyWlLk6GJQsqaUBKTNV-1" target="Z9YNg40CPAMuGilFHo_q-101">
          <mxGeometry width="50" height="50" relative="1" as="geometry">
            <mxPoint x="-310" y="475" as="sourcePoint" />
            <mxPoint x="-260" y="460" as="targetPoint" />
          </mxGeometry>
        </mxCell>
        <mxCell id="Z9YNg40CPAMuGilFHo_q-108" value="&lt;span style=&quot;font-size: 12px;&quot;&gt;include&lt;/span&gt;" style="edgeLabel;html=1;align=center;verticalAlign=middle;resizable=0;points=[];" vertex="1" connectable="0" parent="Z9YNg40CPAMuGilFHo_q-102">
          <mxGeometry x="0.3171" y="10" relative="1" as="geometry">
            <mxPoint as="offset" />
          </mxGeometry>
        </mxCell>
        <mxCell id="Z9YNg40CPAMuGilFHo_q-110" value="Use" style="endArrow=open;endSize=12;dashed=1;html=1;rounded=0;" edge="1" parent="WIyWlLk6GJQsqaUBKTNV-1">
          <mxGeometry width="160" relative="1" as="geometry">
            <mxPoint x="-330" y="480" as="sourcePoint" />
            <mxPoint x="-170" y="480" as="targetPoint" />
          </mxGeometry>
        </mxCell>
        <mxCell id="Z9YNg40CPAMuGilFHo_q-111" value="Use" style="endArrow=open;endSize=12;dashed=1;html=1;rounded=0;" edge="1" parent="WIyWlLk6GJQsqaUBKTNV-1">
          <mxGeometry width="160" relative="1" as="geometry">
            <mxPoint x="-330" y="480" as="sourcePoint" />
            <mxPoint x="-170" y="480" as="targetPoint" />
          </mxGeometry>
        </mxCell>
      </root>
    </mxGraphModel>
  </diagram>
</mxfile>
